<?xml version="1.0" encoding="utf-8"?>
<!-- Generator: Adobe Illustrator 19.2.1, SVG Export Plug-In . SVG Version: 6.00 Build 0)  -->
<svg version="1.1" id="layer" xmlns="http://www.w3.org/2000/svg" xmlns:xlink="http://www.w3.org/1999/xlink" x="0px" y="0px"
	 viewBox="0 0 652 652" style="enable-background:new 0 0 652 652;" xml:space="preserve">
<style type="text/css">
	.st0{fill:#E50012;}
	.st1{fill:#FFFFFF;}
	.st2{fill:#231815;}
</style>
<rect x="20.3" y="260.6" class="st0" width="87.7" height="122.8"/>
<g>
	<path class="st1" d="M67.7,354.3c0,0,6.4-2.7,10.1-2.7c5.4,0,11.5,2.5,12.7,2.8c2.7,0.7,5.6,1.1,5.6,1.1s-7.9,2.9-12.4,2.7
		C79.3,357.9,67.7,354.3,67.7,354.3"/>
	<path class="st1" d="M41,364.2c3-2.2,9.9-8.7,16.8-8.9c6.9-0.3,19.2,4.3,23.2,4.9c7.1,1.2,20.1-1.6,20.1-1.6s-4.5,10.8-27.2,11.3
		c-1.5,0,1.5,2.2,5.9,1.9c4.5-0.2,6.9-0.7,6.9-0.7s-3.5,4.5-8.7,5.1c-8.6,1-17.3-7.5-22.5-9.2C50.4,365.4,48.2,364.4,41,364.2"/>
	<path class="st1" d="M49.7,373.5c-2.4,2-5.5,3.3-9,3.3c-7.5,0-13.6-5.9-13.6-13.3c0-7.3,6.1-13.3,13.6-13.3c3.3,0,6.3,1.2,8.7,3.1
		l-2.7,3.4c-1.6-1.3-3.6-2-5.8-2c-5,0-9,4-9,8.8c0,4.8,4,8.8,9,8.8c2.3,0,4.4-0.8,6-2.2L49.7,373.5z"/>
	<path class="st1" d="M67.1,323.1c0,13.7,4.7,19.6,17.4,19.6c13.5,0,17.4-5.9,17.4-19.6v-5.9H88.4v7.4c0,2,0,7.1-3.9,7.1
		c-3.9,0-3.9-5-3.9-7.1v-38.1c0-2.6,0-7,3.9-7c3.9,0,3.9,4.4,3.9,7v8.7H102v-7.1c0-15.1-4.9-20.8-17.4-20.8
		c-12,0-17.4,5.8-17.4,20.8V323.1z"/>
	<path class="st1" d="M26.3,323.1c0,13.7,4.7,19.6,17.4,19.6c13.5,0,17.4-5.9,17.4-19.6v-5.9H47.6v7.4c0,2,0,7.1-3.9,7.1
		c-3.9,0-3.9-5-3.9-7.1v-38.1c0-2.6,0-7,3.9-7c3.9,0,3.9,4.4,3.9,7v8.7h13.5v-7.1c0-15.1-4.9-20.8-17.4-20.8
		c-12,0-17.4,5.8-17.4,20.8V323.1z"/>
	<polygon class="st2" points="281.1,317.3 281.1,357.7 257.8,317.3 234.7,317.3 234.7,380.7 247,380.7 247,339.8 270.7,380.7 
		293.7,380.7 293.7,317.3 	"/>
	<polygon class="st2" points="538.4,317.3 538.4,357.7 515,317.3 492,317.3 492,380.7 504.3,380.7 504.3,339.8 527.9,380.7 
		551,380.7 551,317.3 	"/>
	<path class="st2" d="M574.9,357.8l7.4-23.2l7.4,23.2H574.9z M597.1,380.7h23.1l-23.1-63.5h-20.7l-23.1,63.5h14.2l3.7-11.7h22
		L597.1,380.7z"/>
	<path class="st2" d="M447.9,347.8v-20.9h4.9c4.9,0,8.8,4,8.8,10.2C461.6,344.6,457.5,347.8,447.9,347.8 M469.5,353.1
		c7.7-2.9,13.3-9.1,13.3-18.6c0-11.7-7.7-17.2-25.8-17.2h-29.7v63.5h20.6v-23.6c1.5,0,2.5,0.2,3.8,2.1l14.8,21.5h23.2L469.5,353.1z"
		/>
	<path class="st2" d="M379,357.8l7.4-23.2l7.4,23.2H379z M401.2,317.3h-20.7l-19.6,54l-19.2-28l20.8-26h-16l-22.2,29.5v-29.5h-20.6
		v63.5h20.6v-23.6c1.5,0,2.5,0.2,3.8,2.1l14.8,21.5h28.8l3.7-11.7h22l3.7,11.7h23.1L401.2,317.3z"/>
	<path class="st2" d="M196.9,333.1c-0.7-0.3-6.5-3.4-15-3.4c-11.6,0-18.4,9.6-18.4,19.3c0,9.4,6.5,19.3,18.4,19.3
		c8.4,0,14.2-3,15-3.4v14.6c-2.2,0.6-8.3,2.2-16.3,2.2c-20.1,0-37.7-12.4-37.7-32.8c0-18.9,16-32.8,37.7-32.8
		c8.4,0,14.6,1.8,16.3,2.3V333.1z"/>
	<rect x="204.2" y="317.3" class="st2" width="20.6" height="63.5"/>
</g>
</svg>
