<svg id="Layer_1" data-name="Layer 1" xmlns="http://www.w3.org/2000/svg" viewBox="0 0 175.88 86.43"><defs><style>.cls-1{fill:#006400;}</style></defs><g id="Layer_1-2" data-name="Layer 1"><path class="cls-1" d="M92,86.22c-.13-10.11-.21-20.42-.34-30.54a43.58,43.58,0,0,1-29-10.57C48.56,32.71,48.2,15.61,48.19,12.92c5.43-1.41,13.74-1.53,22.25.81A41.28,41.28,0,0,1,88.6,24.43a53.92,53.92,0,0,1,12.07,19.29c1.73,4.64,3.19,9.61,3.21,14.56,0,5.41.12,10.82.19,16.24.05,3.9.09,7.8.09,11.7C100.12,86.15,96,86.28,92,86.22Z"/><path class="cls-1" d="M96.53,22A48.12,48.12,0,0,1,112.71,6.42C127.28-2,141.86,0,146.24.81a28.76,28.76,0,0,1,.13,9.13C143,32.51,113,43,110,44c-.29.08-2.74-5.31-3-5.72A114.78,114.78,0,0,0,96.53,22Z"/><path class="cls-1" d="M154.72,35.91"/></g><g id="Name"><path class="cls-1" d="M4.29,86.41a4.78,4.78,0,0,1-2.54-.58A3.18,3.18,0,0,1,.41,84.18,7.23,7.23,0,0,1,0,81.62V76.18a7,7,0,0,1,.41-2.56A3.12,3.12,0,0,1,1.75,72a5,5,0,0,1,2.54-.56A5,5,0,0,1,6.86,72a3.17,3.17,0,0,1,1.35,1.62,7.1,7.1,0,0,1,.41,2.55v5.44a7.19,7.19,0,0,1-.41,2.56,3.24,3.24,0,0,1-1.35,1.65A4.87,4.87,0,0,1,4.29,86.41Zm0-2.14A1.22,1.22,0,0,0,5.14,84a1.31,1.31,0,0,0,.36-.7,4.69,4.69,0,0,0,.09-.94V75.48a4.62,4.62,0,0,0-.09-.94,1.27,1.27,0,0,0-.36-.69,1.2,1.2,0,0,0-.85-.26,1.14,1.14,0,0,0-.81.26,1.31,1.31,0,0,0-.36.69,4.62,4.62,0,0,0-.09.94v6.89a5.49,5.49,0,0,0,.08.94,1.23,1.23,0,0,0,.35.7A1.18,1.18,0,0,0,4.29,84.27Z"/><path class="cls-1" d="M15.09,86.22V71.64h3.56a7,7,0,0,1,2.89.48A2.85,2.85,0,0,1,23,73.61a6.66,6.66,0,0,1,.43,2.6v5.31A7,7,0,0,1,23,84.18a2.88,2.88,0,0,1-1.45,1.54,6.58,6.58,0,0,1-2.83.5Zm3-2.07h.63a2.08,2.08,0,0,0,1.18-.26,1.13,1.13,0,0,0,.44-.77,7.46,7.46,0,0,0,.09-1.27v-6a4.91,4.91,0,0,0-.12-1.21,1,1,0,0,0-.47-.67,2.31,2.31,0,0,0-1.14-.22h-.61Z"/><path class="cls-1" d="M29.94,86.22V71.64h2.95V86.22Z"/><path class="cls-1" d="M43.41,86.41a4.62,4.62,0,0,1-2.25-.5,3.19,3.19,0,0,1-1.36-1.49,6.86,6.86,0,0,1-.53-2.55l2.56-.43a7.25,7.25,0,0,0,.19,1.5,1.83,1.83,0,0,0,.47.9,1.09,1.09,0,0,0,.78.3.83.83,0,0,0,.78-.36,1.63,1.63,0,0,0,.21-.83,2.62,2.62,0,0,0-.44-1.54,7.32,7.32,0,0,0-1.16-1.25l-1.51-1.31a6,6,0,0,1-1.32-1.55,4.11,4.11,0,0,1-.51-2.12,3.55,3.55,0,0,1,1-2.76,4.13,4.13,0,0,1,2.89-1,4,4,0,0,1,1.8.36,2.76,2.76,0,0,1,1.09,1,3.87,3.87,0,0,1,.54,1.31,8.67,8.67,0,0,1,.19,1.41l-2.54.38a9.2,9.2,0,0,0-.12-1.17,1.55,1.55,0,0,0-.32-.79.91.91,0,0,0-.73-.29.84.84,0,0,0-.77.39,1.51,1.51,0,0,0-.25.85,2.17,2.17,0,0,0,.35,1.27,5.93,5.93,0,0,0,1,1l1.48,1.3a8.53,8.53,0,0,1,1.58,1.81,4.51,4.51,0,0,1,.66,2.51,3.71,3.71,0,0,1-.47,1.85,3.41,3.41,0,0,1-1.31,1.3A4,4,0,0,1,43.41,86.41Z"/><path class="cls-1" d="M53.25,86.22V71.64h3v6h2.57v-6h3V86.22h-3V79.76H56.22v6.46Z"/><path class="cls-1" d="M68.55,86.22V71.64h3V86.22Z"/><path class="cls-1" d="M122.79,86.22l2.83-14.58h3.29l2.81,14.58H129l-.52-3.2h-2.3l-.56,3.2Zm3.61-5h1.75l-.88-5.89Z"/><path class="cls-1" d="M141.42,86.43a4,4,0,0,1-2.34-.62,3.29,3.29,0,0,1-1.23-1.76,8.85,8.85,0,0,1-.37-2.66V76.51a8.66,8.66,0,0,1,.38-2.7,3.21,3.21,0,0,1,1.32-1.75,4.68,4.68,0,0,1,2.57-.61,4.93,4.93,0,0,1,2.47.52,2.93,2.93,0,0,1,1.3,1.48,6,6,0,0,1,.4,2.27v.85H143v-1a6.28,6.28,0,0,0-.07-1,1.21,1.21,0,0,0-.33-.69,1.16,1.16,0,0,0-.84-.25,1.06,1.06,0,0,0-.86.31,1.47,1.47,0,0,0-.34.78,6.63,6.63,0,0,0-.07,1v6.46a5.25,5.25,0,0,0,.11,1.1A1.4,1.4,0,0,0,141,84a1.23,1.23,0,0,0,.86.27,1.21,1.21,0,0,0,.86-.29,1.55,1.55,0,0,0,.42-.78,4.84,4.84,0,0,0,.12-1.13V80.53h-1.42v-1.8H146v7.49H144l-.18-1.31A2.73,2.73,0,0,1,143,86,2.58,2.58,0,0,1,141.42,86.43Z"/><path class="cls-1" d="M152.49,86.22V71.64h3.78a8.53,8.53,0,0,1,2.53.33,3,3,0,0,1,1.62,1.18,4.13,4.13,0,0,1,.57,2.34,7.54,7.54,0,0,1-.15,1.59,3.1,3.1,0,0,1-.54,1.21,2.64,2.64,0,0,1-1.09.82l2,7.11h-3l-1.67-6.61h-1v6.61Zm3-8.37h.86a2.35,2.35,0,0,0,1.13-.23,1.25,1.25,0,0,0,.58-.71,3.64,3.64,0,0,0,.17-1.18,2.68,2.68,0,0,0-.37-1.54,1.59,1.59,0,0,0-1.38-.53h-1v4.19Z"/><path class="cls-1" d="M171.55,86.41a4.78,4.78,0,0,1-2.54-.58,3.18,3.18,0,0,1-1.34-1.65,7.23,7.23,0,0,1-.41-2.56V76.18a7,7,0,0,1,.41-2.56A3.12,3.12,0,0,1,169,72a6.06,6.06,0,0,1,5.11,0,3.17,3.17,0,0,1,1.35,1.62,7.1,7.1,0,0,1,.41,2.55v5.44a7.19,7.19,0,0,1-.41,2.56,3.24,3.24,0,0,1-1.35,1.65A4.89,4.89,0,0,1,171.55,86.41Zm0-2.14a1.22,1.22,0,0,0,.85-.26,1.31,1.31,0,0,0,.36-.7,4.69,4.69,0,0,0,.09-.94V75.48a4.62,4.62,0,0,0-.09-.94,1.27,1.27,0,0,0-.36-.69,1.2,1.2,0,0,0-.85-.26,1.14,1.14,0,0,0-.81.26,1.27,1.27,0,0,0-.36.69,4.62,4.62,0,0,0-.09.94v6.89a5.49,5.49,0,0,0,.08.94,1.23,1.23,0,0,0,.35.7A1.18,1.18,0,0,0,171.55,84.27Z"/></g></svg>