<?xml version="1.0" encoding="utf-8"?>
<!-- Generator: Adobe Illustrator 24.0.1, SVG Export Plug-In . SVG Version: 6.00 Build 0)  -->
<svg version="1.1" id="Layer_1" xmlns:xodm="http://www.corel.com/coreldraw/odm/2003"
	 xmlns="http://www.w3.org/2000/svg" xmlns:xlink="http://www.w3.org/1999/xlink" x="0px" y="0px" viewBox="0 0 260.2 238.1"
	 style="enable-background:new 0 0 260.2 238.1;" xml:space="preserve">
<style type="text/css">
	.st0{fill-rule:evenodd;clip-rule:evenodd;fill:#5389C6;}
	.st1{fill-rule:evenodd;clip-rule:evenodd;fill:#F3BB30;}
	.st2{fill-rule:evenodd;clip-rule:evenodd;fill:#E0B137;}
	.st3{fill-rule:evenodd;clip-rule:evenodd;fill:#8374B4;}
	.st4{fill-rule:evenodd;clip-rule:evenodd;fill:#E5A936;}
	.st5{fill-rule:evenodd;clip-rule:evenodd;fill:#F1718B;}
	.st6{fill-rule:evenodd;clip-rule:evenodd;fill:#F05E89;}
	.st7{fill:#373435;}
</style>
<g id="Layer_x0020_1">
	<path class="st0" d="M257,0.9h-43.2c-5.2,0-11.3,4.3-13.4,9.5l-57.9,143.7c2.3,2.3,5.2,2.6,9.2,2.6c1.9,0,4,0,6.5,0h35.5L257,0.9
		L257,0.9z"/>
	<path class="st1" d="M89.4,30.5h43.2c5.2,0,11.3,4.3,13.4,9.5l47.4,116.7h-44.9c-4.3,0-9.3-3.5-11-7.8L89.4,30.5L89.4,30.5z"/>
	<path class="st2" d="M167.3,92.5l26.1,64.2h-35.3h-0.4h-8.7c-2.7-0.2-4.8-0.8-6.6-2.6L167.3,92.5L167.3,92.5z"/>
	<polygon class="st3" points="89.4,30.5 38.7,154.7 44.9,156.7 90.6,156.7 139.5,35.4 	"/>
	<path class="st4" d="M115.6,94.8l24.8-61.5c-2.4-1.7-5.2-2.7-7.7-2.7H89.4L115.6,94.8L115.6,94.8z"/>
	<path class="st5" d="M2,70.3h43.2c5.2,0,11.2,4.3,13.4,9.5l32,76.9L45,156.8c-4.3,0-9.3-3.5-11-7.8L2,70.3L2,70.3z"/>
	<polygon class="st6" points="63.9,93 90.6,156.7 44.9,156.7 38.7,154.7 	"/>
	<path class="st7" d="M37.1,185.3l-7.4,21.8l-7.4-21.8h-2.5L12.3,207L5,185.3H2.2l8.5,25.2h2.8l7.4-21.5l7.4,21.5h2.8l8.5-25.2H37.1
		L37.1,185.3z M45.2,187.4c1.1,0,1.9-0.8,1.9-1.9c0-1-0.8-1.8-1.9-1.8c-1,0-1.9,0.8-1.9,1.8C43.3,186.6,44.1,187.4,45.2,187.4z
		 M43.9,210.5h2.6v-19h-2.6V210.5z M53.6,210.5h2.6v-26.8h-2.6V210.5z M63.3,210.5h2.6v-26.8h-2.6V210.5z M74.3,187.4
		c1.1,0,1.9-0.8,1.9-1.9c0-1-0.8-1.8-1.9-1.8s-1.9,0.8-1.9,1.8C72.4,186.6,73.2,187.4,74.3,187.4z M73,210.5h2.6v-19H73V210.5z
		 M89.3,191.4c-3,0-5.8,0.9-7.7,2.6l1.2,1.9c1.6-1.4,3.9-2.2,6.3-2.2c3.5,0,5.4,1.8,5.4,5v1.2h-6c-5.4,0-7.3,2.5-7.3,5.4
		c0,3.3,2.6,5.5,6.9,5.5c3.1,0,5.4-1.2,6.5-3.1v3H97v-11.8C97,193.9,94.2,191.4,89.3,191.4L89.3,191.4z M88.4,208.7
		c-3,0-4.8-1.4-4.8-3.6c0-1.9,1.2-3.4,4.9-3.4h5.9v3.1C93.4,207.3,91.3,208.7,88.4,208.7L88.4,208.7z M127.6,191.4
		c-3.4,0-6.1,1.6-7.5,4c-1.2-2.7-3.6-4-6.7-4c-3.2,0-5.6,1.3-7,3.6v-3.5h-2.5v19h2.6v-10c0-4.3,2.5-6.9,6.3-6.9
		c3.5,0,5.5,2.1,5.5,6.1v10.7h2.6v-10c0-4.3,2.5-6.9,6.3-6.9c3.4,0,5.4,2.1,5.4,6.1v10.7h2.6v-11
		C135.2,194.1,132.2,191.4,127.6,191.4L127.6,191.4z M147.3,210.7c4.9,0,7.8-2.1,7.8-5.4c0-7.3-12.3-3.4-12.3-8.5
		c0-1.8,1.5-3.1,4.9-3.1c1.9,0,3.9,0.5,5.6,1.6l1.1-2.1c-1.6-1.1-4.3-1.8-6.7-1.8c-4.8,0-7.5,2.3-7.5,5.4c0,7.5,12.3,3.6,12.3,8.5
		c0,1.9-1.5,3.1-5.1,3.1c-2.7,0-5.2-0.9-6.7-2.1l-1.2,2C141.1,209.7,144.1,210.7,147.3,210.7L147.3,210.7z M201.9,185.3l-7.4,21.8
		l-7.4-21.8h-2.5l-7.5,21.7l-7.3-21.7H167l8.5,25.2h2.8l7.4-21.5l7.4,21.5h2.8l8.5-25.2H201.9L201.9,185.3z M223.9,201.1
		c0-5.7-3.9-9.6-9.2-9.6c-5.3,0-9.3,4-9.3,9.6s4,9.7,10,9.7c3,0,5.6-1.1,7.3-3.1l-1.4-1.7c-1.4,1.7-3.5,2.5-5.8,2.5
		c-4.1,0-7.2-2.6-7.5-6.6h15.9C223.9,201.6,223.9,201.3,223.9,201.1L223.9,201.1z M214.7,193.6c3.7,0,6.4,2.6,6.7,6.3H208
		C208.3,196.2,211,193.6,214.7,193.6z M234.2,210.7c4.9,0,7.8-2.1,7.8-5.4c0-7.3-12.3-3.4-12.3-8.5c0-1.8,1.5-3.1,4.9-3.1
		c1.9,0,3.9,0.5,5.6,1.6l1.1-2.1c-1.6-1.1-4.3-1.8-6.7-1.8c-4.8,0-7.5,2.3-7.5,5.4c0,7.5,12.3,3.6,12.3,8.5c0,1.9-1.5,3.1-5.1,3.1
		c-2.7,0-5.2-0.9-6.7-2.1l-1.2,2C228,209.7,231.1,210.7,234.2,210.7L234.2,210.7z M255.8,207.5c-0.7,0.6-1.8,1-2.8,1
		c-2.1,0-3.3-1.2-3.3-3.5v-11.3h5.8v-2.2h-5.8v-4.1h-2.6v4.1h-3.4v2.2h3.4v11.5c0,3.5,2,5.5,5.6,5.5c1.5,0,3-0.4,4-1.3L255.8,207.5
		L255.8,207.5z"/>
	<path class="st7" d="M59.2,235.1h1.3v-12.4h-1.3V235.1z M71.5,225.6c-1.6,0-2.9,0.7-3.6,1.8v-1.7h-1.2v9.4H68v-4.9
		c0-2.1,1.3-3.4,3.3-3.4c1.8,0,2.8,1,2.8,3v5.3h1.3v-5.4C75.4,227,73.8,225.6,71.5,225.6L71.5,225.6z M85.7,233.6
		c-0.4,0.3-0.9,0.5-1.4,0.5c-1,0-1.6-0.6-1.6-1.7v-5.6h2.8v-1.1h-2.8v-2h-1.3v2h-1.7v1.1h1.7v5.7c0,1.7,1,2.7,2.7,2.7
		c0.7,0,1.5-0.2,2-0.7L85.7,233.6L85.7,233.6z M98.7,230.4c0-2.8-1.9-4.7-4.5-4.7s-4.6,2-4.6,4.7c0,2.8,2,4.8,4.9,4.8
		c1.5,0,2.8-0.5,3.6-1.5l-0.7-0.8c-0.7,0.8-1.7,1.2-2.9,1.2c-2,0-3.5-1.3-3.7-3.3h7.8C98.7,230.6,98.7,230.5,98.7,230.4L98.7,230.4z
		 M94.2,226.7c1.8,0,3.2,1.3,3.3,3.1h-6.6C91.1,228,92.4,226.7,94.2,226.7L94.2,226.7z M105,227.5v-1.8h-1.2v9.4h1.3v-4.8
		c0-2.2,1.2-3.4,3.1-3.4c0.1,0,0.2,0,0.3,0v-1.2C106.7,225.6,105.6,226.3,105,227.5L105,227.5z M118,225.6c-1.6,0-2.9,0.7-3.6,1.8
		v-1.7h-1.2v9.4h1.3v-4.9c0-2.1,1.3-3.4,3.3-3.4c1.8,0,2.8,1,2.8,3v5.3h1.3v-5.4C121.8,227,120.2,225.6,118,225.6L118,225.6z
		 M130.9,225.6c-1.5,0-2.9,0.5-3.8,1.3l0.6,0.9c0.8-0.7,1.9-1.1,3.1-1.1c1.7,0,2.6,0.9,2.6,2.5v0.6h-3c-2.7,0-3.6,1.2-3.6,2.6
		c0,1.6,1.3,2.7,3.4,2.7c1.5,0,2.6-0.6,3.2-1.5v1.5h1.2v-5.8C134.7,226.9,133.4,225.6,130.9,225.6L130.9,225.6z M130.5,234.2
		c-1.5,0-2.4-0.7-2.4-1.8c0-1,0.6-1.7,2.4-1.7h2.9v1.5C133,233.5,131.9,234.2,130.5,234.2L130.5,234.2z M145.1,233.6
		c-0.4,0.3-0.9,0.5-1.4,0.5c-1,0-1.6-0.6-1.6-1.7v-5.6h2.8v-1.1h-2.8v-2h-1.3v2h-1.7v1.1h1.7v5.7c0,1.7,1,2.7,2.7,2.7
		c0.7,0,1.5-0.2,2-0.7L145.1,233.6L145.1,233.6z M150.9,223.7c0.5,0,0.9-0.4,0.9-0.9c0-0.5-0.4-0.9-0.9-0.9c-0.5,0-0.9,0.4-0.9,0.9
		C150,223.3,150.4,223.7,150.9,223.7z M150.3,235.1h1.3v-9.4h-1.3V235.1z M161.3,235.2c2.7,0,4.7-2,4.7-4.8s-2-4.7-4.7-4.7
		s-4.8,2-4.8,4.7C156.5,233.2,158.6,235.2,161.3,235.2z M161.3,234c-2,0-3.5-1.5-3.5-3.6s1.5-3.6,3.5-3.6c2,0,3.5,1.5,3.5,3.6
		C164.8,232.6,163.3,234,161.3,234z M175.8,225.6c-1.6,0-2.9,0.7-3.6,1.8v-1.7h-1.2v9.4h1.3v-4.9c0-2.1,1.3-3.4,3.3-3.4
		c1.8,0,2.8,1,2.8,3v5.3h1.3v-5.4C179.7,227,178.1,225.6,175.8,225.6L175.8,225.6z M188.8,225.6c-1.5,0-2.9,0.5-3.8,1.3l0.6,0.9
		c0.8-0.7,1.9-1.1,3.1-1.1c1.7,0,2.6,0.9,2.6,2.5v0.6h-3c-2.7,0-3.6,1.2-3.6,2.6c0,1.6,1.3,2.7,3.4,2.7c1.5,0,2.6-0.6,3.2-1.5v1.5
		h1.2v-5.8C192.6,226.9,191.2,225.6,188.8,225.6L188.8,225.6z M188.4,234.2c-1.5,0-2.4-0.7-2.4-1.8c0-1,0.6-1.7,2.4-1.7h2.9v1.5
		C190.8,233.5,189.8,234.2,188.4,234.2L188.4,234.2z M198.5,235.1h1.3v-13.2h-1.3V235.1z"/>
</g>
</svg>
