<svg id="Layer_1" data-name="Layer 1" xmlns="http://www.w3.org/2000/svg" viewBox="0 0 416.05 432.23"><path d="M363.3,185.61v-5.79q0-49,0-98c0-20.38,11.21-31.63,31.48-31.65,9.83,0,19.67.13,29.49-.13a6.6,6.6,0,0,0,4.82-2.79c5.48-9.84,14.82-14.85,25.84-12.87,1.65.29,4.11,2.83,4.14,4.37.31,15.66.29,31.33,0,47,0,1.48-2.18,3.92-3.68,4.21-11.3,2.21-20.87-2.74-26.33-12.73a6.58,6.58,0,0,0-4.73-2.91c-9-.28-18-.2-27-.11-6.85.06-10,3-10,9.66q-.1,50,0,100a9.47,9.47,0,0,0,.22,1.43c7.74,2.38,7.74,2.38,7.75,10.79,0,13.54,0,13.54-13.7,14.13a17.43,17.43,0,0,0-1.88.32v31.12c7.57,1.38,7.58,1.38,7.58,9.33q0,84,0,168c0,24.18-14.4,42.19-37,46.47a55.93,55.93,0,0,1-10.44.69q-74.74.06-149.5,0c-21.6,0-34.9-13.29-35-34.85,0-6.81,0-13.63,0-21.14-6.19,0-12-.17-17.74.05-4.52.17-6.41-1.7-6.3-6.17.15-5.78,0-11.56,0-17.88H111.79c-9.66,0-19.33.06-29,0-23.17-.16-39.24-16.07-39.47-39.3-.17-17.16,0-34.33,0-51.49q0-89.76,0-179.5c0-21.93,10.08-35.16,32-41.35,0-4.54,0-9.31,0-14.09,0-12.21,6-18.23,18-18.25q23,0,46,0c11.47,0,17.58,6.18,17.63,17.61,0,4.62,0,9.24,0,14.12H195.3c0-3.49,0-6.77,0-10.05,0-3.62,1.54-5.68,5.34-5.68h45.5c3.5,0,5.2,1.72,5.15,5.24,0,3.31,0,6.63,0,10.29,2.74.38,5.15.69,7.56,1.06a37.38,37.38,0,0,1,32.32,35.81c.29,7.15.14,14.33.14,21.49q0,106.75,0,213.5c0,19.18-9.65,33.59-26.3,38.67a52.07,52.07,0,0,1-14.26,1.85c-15.49.22-31,.08-47.43.08,0,4,0,7.73,0,11.46,0,13.95.88,12.51-12.76,12.54H179.86c0,8.12-.51,15.91.18,23.59.44,4.9,4.39,7.65,9.37,8.27a45.65,45.65,0,0,0,5.49.14h144c16.62,0,24.39-7.8,24.39-24.5q0-83.49,0-167c0-7.52.24-7.79,7.71-9V210.18h-7.89c-7.35,0-7.8-.48-7.82-8.05q0-3.75,0-7.5C355.31,187.19,355.5,187,363.3,185.61Zm-80,44.65q0-58,0-116c0-19.68-12.55-32.06-32.29-32.08q-83.74,0-167.49,0c-19.35,0-32.15,12.55-32.17,31.81q-.12,116.25,0,232.49c0,19.13,12.61,31.64,31.66,31.66q84.5.07,169,0a35.57,35.57,0,0,0,7.93-.69c14.4-3.31,23.33-15,23.36-30.7Q283.39,288.52,283.3,230.26Zm-120,180.16c0,7.16,0,14.1,0,21.05.09,16.9,9.85,26.69,26.71,26.7q75,0,149.94,0a47,47,0,0,0,9.93-.78c18.16-3.92,29.37-18.42,29.39-38.09q.11-82,0-163.94c0-1.6-.19-3.2-.29-4.81H371.3v6.22q0,80.73,0,161.44c0,20.38-11.56,32-31.81,32q-50.24,0-100.46,0c-15.66,0-31.32.06-47,0-12.7-.06-20.48-7.82-20.72-20.55-.09-4.66,0-9.33,0-14,0-1.75-.2-3.5-.3-5.2ZM148.92,73.94c0-5.78.18-11.09-.06-16.38-.19-4.5-3-7.22-7.37-7.27-16.83-.17-33.66-.14-50.48,0-4.16,0-7.18,2.34-7.47,6.6-.37,5.59-.09,11.23-.09,17.08ZM371.3,185.83h8v-6.26c0-25.66.35-51.32-.09-77-.6-34.89,1.05-37.45,36.27-36.43,3.78.11,7.57,0,11.36,0v-8H395c-16,0-23.65,7.61-23.66,23.51q0,49.23,0,98.47ZM195,386.55H139.59v15.29H195Zm255.93-344C442,42.32,436.28,46.77,435.59,55a72.93,72.93,0,0,0,.35,16.38c1.06,7.32,7.42,11.33,15,10.25Zm-247.34,24v7.38H243V66.47Zm160,135.43h23.29v-7.72H363.59Z" transform="translate(-43.25 -33.96)"/><path d="M167.08,327A88,88,0,0,1,79,238.45c0-48.32,39.82-87.57,88.64-87.44,47.88.12,87.38,39.83,87.33,87.78C255,287.5,215.56,327,167.08,327ZM247,239.05c-.1-44.13-35.9-80.08-79.68-80A80.05,80.05,0,0,0,87,239.43c0,44,36.29,79.74,80.67,79.56C211.22,318.81,247.1,282.66,247,239.05Z" transform="translate(-43.25 -33.96)"/><path d="M153.6,245.82c-9.5,0-18.3,0-27.11,0-10.36,0-14.88-4.82-14.39-15.2,1.39-29.29,26.4-52.69,56.24-52.59,29.48.1,54.28,23.66,55.56,52.76.45,10.32-4.08,15-14.56,15-8.79,0-17.58,0-26.51,0,2.64,8.92,5.42,17.27,7.5,25.79a39.14,39.14,0,0,1,1.15,13.81,23.61,23.61,0,0,1-26.81,20.38c-12.92-1.87-22.39-13.84-20.21-27,1.51-9.13,4.59-18,7-27C152,250.09,152.68,248.42,153.6,245.82Zm51.34-43.06c-20.17-23-55.85-22.88-73.62,0,7.51,5.69,9.92,11.63,7.35,18.15-2.64,6.75-8.4,9.31-18.26,8.14-1.9,7.34-.61,9.11,6.75,9.11q41,0,81.94,0c7.11,0,8.69-2.35,6.23-9.13-9.24,1.37-15.11-1.22-17.89-7.91S197.15,208.2,204.94,202.76Zm-37.12,42.46c-2.22.71-5.9.85-6.44,2.23-4.54,11.56-9.74,23.1-9.51,35.87.17,9.1,8.49,15.9,17.62,15,10.45-1,16.69-10,14.18-22-1.76-8.41-4.9-16.53-7.2-24.84C175.23,247,173.08,244.41,167.82,245.22Zm-35.49-30.75-5-4.55c-1.81,3.11-3.72,6.17-5.23,9.42-.14.3,2.29,2.55,3.59,2.62C129.53,222.16,131.61,219.8,132.33,214.47Zm82,5.78c-.46-1.47-.88-3-1.46-4.55s-.92-3.1-2-3.91-3.31-1.45-4.22-.87c-3.05,1.93-3.71,4.93-1.86,8.14C206.8,222.45,210,222.86,214.36,220.25Z" transform="translate(-43.25 -33.96)"/><path d="M167.87,194.07a13.81,13.81,0,1,1-13.71,13.66A14,14,0,0,1,167.87,194.07Zm.09,20a6.06,6.06,0,0,0,6.21-6.29c-.16-3.69-2.26-5.76-5.89-6.07a6.06,6.06,0,0,0-6.48,6A6.15,6.15,0,0,0,168,214.07Z" transform="translate(-43.25 -33.96)"/></svg>