<svg id="Layer_1" data-name="Layer 1" xmlns="http://www.w3.org/2000/svg" viewBox="0 0 330.32 394.31"><path d="M129.14,59c9.79.1,17.72,5,25.76,9.79a10.6,10.6,0,0,0,7.2,1.33c40.29-10,81.16-13.83,122.45-9.71,18.49,1.85,36.74,6.15,55,9.61,3.18.6,5.51.36,8.26-1.46,8.1-5.37,16.55-9.94,26.81-9.55,8.76.33,14.24,5.59,14.36,14.47.13,9.22-3.71,17.19-8.6,24.62-1.92,2.92-1.83,5-.36,8q72.38,149.63.05,299.31c-1.57,3.26-1.29,5.36.41,8.49,3.15,5.8,6.18,11.89,7.78,18.24,3.62,14.34-5.52,23.72-19.78,20.09-7.12-1.81-13.86-5.48-20.4-9-3.15-1.69-5.68-2.5-9.26-1.6-41.75,10.46-84.08,14.29-126.89,9.15-16.82-2-33.38-6.07-50.11-8.93a14.13,14.13,0,0,0-7.26,1.24c-7.19,2.94-14,7.3-21.4,9.15-14.06,3.5-23.08-5.82-19.56-19.92,1.62-6.5,4.8-12.72,8-18.66,1.63-3,1.77-5.09.27-8A329.51,329.51,0,0,1,121,108.07c2.12-4.21,2.36-7.19-.19-11.63a60.91,60.91,0,0,1-7.5-19.84C111.38,65.24,117.68,59,129.14,59Zm.56,7.89c-6.51-.09-9.85,3-8.35,8.54A70.32,70.32,0,0,0,129.53,95c3.2,5,3.08,8.5.48,13.52A321.52,321.52,0,0,0,130.89,405c2,3.9,1.75,6.64-.56,10.45a81.3,81.3,0,0,0-8.71,18.87c-2.34,8,2.09,12.43,10,9.95,7.18-2.26,13.94-6.08,20.56-9.78,3-1.66,5.37-2.5,8.79-1.57,59.93,16.35,119.88,15.3,179.77-.2,3.41-.89,5.81-.1,8.8,1.57,6.76,3.78,13.67,7.65,21,10,7.69,2.43,12-1.93,9.87-9.66a63,63,0,0,0-8.06-18.05c-3.23-4.81-3-8.25-.48-13.07a317,317,0,0,0,35.82-141.6,318.77,318.77,0,0,0-36.46-154.94c-2.11-4-1.92-6.93.55-10.88a74.24,74.24,0,0,0,8.42-17.92c2.61-8.8-1.88-13.35-10.6-10.58-6.86,2.17-13.34,5.86-19.59,9.56a11.71,11.71,0,0,1-9.3,1.65c-14.14-3.07-28.25-6.58-42.55-8.61-45.62-6.49-90.74-3.08-135.27,8.51-4.34,1.13-7.76.8-11.55-2C144.63,71.73,137.3,67.7,129.7,66.84Z" transform="translate(-85.97 -58.72)"/><path d="M251.1,169.84a86.09,86.09,0,0,1,86,86.35c-.15,47.25-38.88,85.77-86.16,85.71a86,86,0,1,1,.21-172.06Zm.1,8.2c-42.78-.08-77.89,34.64-78.08,77.22-.2,43.17,34.91,78.53,77.92,78.48,42.63,0,77.7-35,77.84-77.57A78,78,0,0,0,251.2,178Z" transform="translate(-85.97 -58.72)"/><path d="M238.8,292.7c0,4.54-.19,8.62.06,12.67.18,3,.44,6.05-3.39,6.57-3.49.47-4.72-2.23-4.76-5.09-.09-5.78,1.34-11.86,0-17.28s-6.26-9.66-8-15C219,263.54,223,254.1,230.9,246c5-5.13,10.24-10.08,14.51-15.76,5.52-7.34,8.71-15.65,7-25.27-.27-1.47,1-3.93,2.32-4.73,1-.61,4,.15,4.67,1.22,12.62,19,23,38.75,20.87,62.62C278.75,281.22,264.82,299.54,238.8,292.7Zm1.75-8.68c15.89,5.74,29.21-3.32,31.42-19.81s-4-30.94-11.8-46.2c-4.21,15.1-13.88,25.08-24.15,34.71a24.2,24.2,0,0,0-5.35,8.29c-2.74,6.6-.87,13.85,3.58,17.45,4.3-4.65,8.46-9.36,12.88-13.82,2-2,4.74-3,7-.27s.23,4.64-1.82,6.7C248.37,275,244.81,279.27,240.55,284Z" transform="translate(-85.97 -58.72)"/></svg>