<svg id="Layer_1" data-name="Layer 1" xmlns="http://www.w3.org/2000/svg" viewBox="0 0 414.4 430.66"><path d="M203.47,384.65c0,6.28-.14,12,.05,17.79.15,4.48-1.66,6.35-6.18,6.17-5.63-.22-11.27-.05-17.12-.05,0,8.17-.53,16.08.2,23.89.43,4.61,4.38,7.23,9.13,7.84a39.19,39.19,0,0,0,5,.14H339c15.94,0,23.89-7.9,23.9-23.8q0-83.67,0-167.35c0-7.05.37-7.46,7.65-8.45V209.34c-3.27,0-6.51-.14-9.73,0-4.33.23-6-1.82-5.91-6,.1-3.15,0-6.31,0-9.46,0-7.54.25-7.83,8-9v-5.76q0-48.8,0-97.61C362.86,61,374,50,394.61,50c9.63,0,19.26-.07,28.89,0,2.62,0,4-.62,5.29-3.2a23,23,0,0,1,25.73-12.53c1.59.37,3.74,3.06,3.77,4.71.29,15.26.16,30.54.18,45.81,0,3.55-1.72,4.87-5.23,5.06-11.32.62-20.15-2.88-25.18-13.8-.53-1.15-2.81-2.06-4.29-2.09-8.63-.2-17.27-.12-25.9-.09-8.33,0-11.09,2.73-11.1,11q0,45.33,0,90.64v9.27c7.94,1.45,8.07,1.46,7.92,8.39-.1,4.91,1.06,11.17-1.47,14.3-2.18,2.7-8.78,1.81-13.95,2.58v30.53c7.5,1.56,7.5,1.56,7.5,9.76q0,83.42,0,166.84c0,22.3-12,39.38-32,45.15a52.4,52.4,0,0,1-14.22,1.88q-75.45.19-150.91.06c-20.26,0-33.7-13.4-33.95-33.61-.09-7.12,0-14.25,0-22.15H139.08c-6.69,0-7.29-.64-7.32-7.49,0-5.28,0-10.55,0-16.42h-9.87c-12.62,0-25.23,0-37.85,0-23.94-.09-39.87-16-39.92-40q-.12-60.51,0-121V118.49C44.1,93.33,51.93,82.27,76,74c0-5-.07-10.06,0-15.18.18-10.5,6.36-16.72,16.85-16.77q23.91-.14,47.81,0C151,42.09,157.22,48.48,157.3,59c0,4.77,0,9.55,0,14.62h38.21c0-3.53,0-6.95,0-10.38s1.73-5.24,5.21-5.25q22.65,0,45.32,0c3.81,0,5.34,2,5.24,5.63-.09,3.28,0,6.57,0,9.92,3.34.43,6.14.71,8.91,1.17C276.62,77.36,289.88,92,291,108.54c.11,1.66.18,3.32.18,5q0,115.8,0,231.59c0,18.37-9.8,32.56-26.1,37.59a49.61,49.61,0,0,1-13.7,1.87c-13.94.23-27.89.08-41.83.08Zm79.7-155.17q0-57.78,0-115.54c0-19.66-12.45-32.07-32-32.09q-83.42-.06-166.83,0c-19.55,0-32.18,12.52-32.2,32.06Q52,229.44,52.1,345c0,19.3,12.55,31.67,31.9,31.68q83.67.06,167.34,0a38.11,38.11,0,0,0,8.87-.81c14.4-3.47,22.91-14.9,22.94-30.82Q283.24,287.26,283.17,229.48ZM163.63,408.79c0,7.4,0,14.19,0,21,.09,16.83,9.81,26.59,26.6,26.6q74.67,0,149.36,0a47.19,47.19,0,0,0,9.88-.77c18.09-3.91,29.26-18.35,29.29-37.94q.09-81.66,0-163.3c0-1.6-.19-3.19-.29-4.8h-7.67v6.19c0,53.44-.39,106.88.2,160.31.23,20-14.08,32.86-32.38,32.59-43.64-.66-87.29-.22-130.94-.22-5.14,0-10.29,0-15.43,0-12.65-.12-20.41-7.79-20.65-20.47-.1-5.14,0-10.29,0-15.43a29.93,29.93,0,0,0-.49-3.7ZM84,73.43h65.32c0-5.4.12-10.37,0-15.33-.15-5.21-2.82-8-8.09-8.08-16.43-.13-32.86-.1-49.3,0-4.64,0-7.59,2.59-7.84,7.29C83.79,62.58,84,67.87,84,73.43Zm342.33-15.5h-32c-15.92,0-23.54,7.58-23.54,23.44q0,49,0,98.08v5.62h8V86.22c0-14.48,5.79-20.31,20.14-20.32h27.41ZM195.48,385H140.12v15.3h55a13.23,13.23,0,0,0,.35-2.08C195.49,394.11,195.48,390,195.48,385ZM450.17,42.34c-8.87-.25-14.61,4.19-15.3,12.36A71.73,71.73,0,0,0,435.21,71c1.05,7.29,7.34,11.28,15,10.26Zm-246.42,31h39.12V66.24H203.75Zm159.4,127.72h23.2v-7.38h-23.2Z" transform="translate(-44.08 -33.7)"/><path d="M167.47,325.67a87.67,87.67,0,0,1-87.79-88.11c0-48.14,39.61-87.26,88.23-87.17,47.7.1,87.07,39.61,87.06,87.38C255,286.29,215.75,325.69,167.47,325.67ZM87.65,238.22c0,43.67,35.67,79.35,79.6,79.51C210.89,317.89,247,282,247,238.35c0-44-35.55-79.93-79.11-80A79.74,79.74,0,0,0,87.65,238.22Z" transform="translate(-44.08 -33.7)"/><path d="M186.33,180.6c10.88,7.85,16.16,17.6,17,30.14,3.43-1.09,6.48-2.51,9.65-2.9,1.84-.22,3.88,1.23,5.83,1.93-1,1.79-1.62,4.44-3.16,5.21-3.81,1.91-8.06,3-12.28,4.41v19.66c3.57,0,7.21-.41,10.68.16,1.81.3,4.43,2.1,4.75,3.62.62,3-1.82,4.22-4.74,4.19-3.45-.05-6.9,0-10.89,0v19.57c3.61,1.24,7.63,2.67,11.69,4,2.78.93,5.15,2.35,3.86,5.68-1.1,2.86-3.54,2.94-6.26,1.94-3.86-1.41-7.82-2.55-10.55-3.43-5.63,6.75-9.9,14.05-16.1,18.84-15.74,12.18-21.05,11.71-37.08.15a43,43,0,0,1-8.53-9c-2.37-3.12-4.09-6.75-6.25-10.43-4.09,1.33-8.08,3-12.25,3.81-1.77.34-4.87-.62-5.64-2-1.54-2.71.56-4.52,3.27-5.42,4.21-1.41,8.4-2.87,12.32-4.21V247c-3.93,0-7.49,0-11.06,0-2.91,0-5.37-1.16-4.75-4.17.32-1.52,2.92-3.32,4.72-3.64,3.36-.58,6.88-.16,10.61-.16v-19.7c-3.72-1.29-7.72-2.73-11.75-4.06-2.7-.88-4.64-2.36-3.51-5.42s3.44-3.09,6.18-2.07c2.9,1.09,5.91,1.9,9.21,2.94.88-12.45,6-22.26,16.79-29.91-2.59-2.32-5.2-4-6.81-6.35-1-1.44-.4-3.94-.53-6,2,.2,5-.38,5.92.74,4.88,6,10.14,9.22,18.15,6.25a12,12,0,0,1,7.84.33c5.61,2.21,9.37.25,12.61-4.14.78-1.06,1.71-2.37,2.84-2.72,1.78-.56,3.78-.41,5.69-.56-.06,2,.63,4.59-.34,6C191.8,176.72,189.08,178.3,186.33,180.6ZM163,292.64v-77.1H139.48c0,15.18-.28,30,.08,44.71C139.91,274.65,150.19,288.53,163,292.64Zm8.61-77.26v77.85c12.22-5.68,21.17-14.34,22.31-27.09,1.49-16.72.36-33.67.36-50.76ZM194.39,207c-1-13.42-13.66-24.08-27.89-23.72-13.54.33-25.77,11.38-26.11,23.72Z" transform="translate(-44.08 -33.7)"/></svg>